<svg xmlns="http://www.w3.org/2000/svg" xmlns:xlink="http://www.w3.org/1999/xlink" width="300" zoomAndPan="magnify" viewBox="0 0 224.87999 68.999997" height="92" preserveAspectRatio="xMidYMid meet" version="1.0"><defs><g/><clipPath id="7e0330ed29"><path d="M 24.152344 6.929688 L 78.871094 6.929688 L 78.871094 34.664062 L 24.152344 34.664062 Z M 24.152344 6.929688 " clip-rule="nonzero"/></clipPath></defs><g clip-path="url(#7e0330ed29)"><path fill="#0cc0df" d="M 53.449219 9.238281 L 50.777344 11.058594 C 50.738281 11.085938 50.714844 11.128906 50.714844 11.175781 L 50.710938 11.613281 L 51 11.617188 L 51.003906 11.253906 L 53.671875 9.433594 C 53.710938 9.40625 53.734375 9.363281 53.738281 9.316406 L 53.753906 7.898438 C 53.753906 7.820312 53.691406 7.753906 53.609375 7.753906 L 53.199219 7.746094 L 53.195312 8.035156 L 53.460938 8.039062 Z M 37.621094 17.289062 L 39.851562 15.714844 L 39.496094 15.214844 L 37.265625 16.789062 Z M 53.136719 7 L 47.15625 6.929688 L 47.132812 8.738281 L 53.113281 8.808594 Z M 55.421875 15.515625 C 55.476562 15.320312 55.5 15.117188 55.402344 14.957031 C 55.304688 14.796875 55.070312 14.660156 55.066406 14.472656 C 55.0625 14.15625 55.421875 14.0625 55.375 13.75 C 55.183594 13.847656 55 13.839844 54.898438 14.085938 C 54.695312 14.554688 54.882812 14.675781 55.175781 15.097656 C 55.226562 15.171875 55.167969 15.273438 55.148438 15.363281 C 55.117188 15.472656 55.382812 15.597656 55.421875 15.515625 Z M 68.402344 19.929688 C 71.28125 19.0625 71.097656 16.921875 71.085938 16.796875 L 71.085938 16.792969 C 71.085938 16.792969 71.085938 16.789062 71.085938 16.789062 L 71.082031 16.789062 C 70.976562 16.71875 69.171875 15.554688 67.054688 17.695312 L 67.753906 18.816406 Z M 70.175781 18.667969 C 70.261719 18.578125 70.328125 18.476562 70.398438 18.375 C 70.472656 18.277344 70.519531 18.167969 70.578125 18.066406 C 70.640625 17.972656 70.671875 17.863281 70.722656 17.765625 C 70.769531 17.671875 70.796875 17.574219 70.828125 17.488281 C 70.851562 17.398438 70.890625 17.320312 70.90625 17.242188 C 70.921875 17.167969 70.9375 17.105469 70.949219 17.050781 C 70.976562 16.945312 70.992188 16.882812 70.992188 16.882812 L 71.003906 16.882812 C 71.003906 16.882812 71 16.949219 70.992188 17.058594 C 70.988281 17.113281 70.980469 17.179688 70.972656 17.257812 C 70.964844 17.335938 70.9375 17.417969 70.917969 17.511719 C 70.890625 17.605469 70.871094 17.707031 70.828125 17.808594 C 70.808594 17.859375 70.785156 17.914062 70.765625 17.96875 C 70.742188 18.019531 70.71875 18.074219 70.6875 18.125 C 70.621094 18.226562 70.570312 18.34375 70.488281 18.441406 C 70.414062 18.539062 70.335938 18.644531 70.246094 18.734375 C 70.203125 18.78125 70.160156 18.828125 70.113281 18.871094 C 70.066406 18.914062 70.019531 18.957031 69.972656 18.996094 C 69.882812 19.085938 69.773438 19.148438 69.679688 19.222656 C 69.578125 19.285156 69.484375 19.351562 69.386719 19.402344 C 69.292969 19.453125 69.199219 19.5 69.113281 19.535156 C 69.027344 19.578125 68.945312 19.605469 68.871094 19.632812 C 68.800781 19.65625 68.738281 19.679688 68.683594 19.695312 C 68.578125 19.726562 68.515625 19.738281 68.515625 19.738281 L 68.511719 19.726562 C 68.511719 19.726562 68.574219 19.714844 68.675781 19.675781 C 68.730469 19.660156 68.789062 19.632812 68.863281 19.605469 C 68.929688 19.574219 69.011719 19.542969 69.09375 19.5 C 69.179688 19.457031 69.269531 19.410156 69.359375 19.351562 C 69.453125 19.300781 69.542969 19.230469 69.640625 19.167969 C 69.730469 19.089844 69.832031 19.023438 69.917969 18.9375 C 69.960938 18.894531 70.007812 18.851562 70.050781 18.808594 C 70.09375 18.765625 70.132812 18.714844 70.175781 18.667969 Z M 68.136719 18.496094 C 68.226562 18.425781 68.332031 18.34375 68.453125 18.273438 C 68.578125 18.203125 68.714844 18.136719 68.851562 18.066406 C 69.121094 17.925781 69.386719 17.785156 69.589844 17.683594 C 69.796875 17.582031 69.929688 17.511719 69.929688 17.511719 L 69.945312 17.535156 C 69.945312 17.535156 69.820312 17.621094 69.632812 17.753906 C 69.449219 17.886719 69.199219 18.058594 68.949219 18.230469 C 68.824219 18.316406 68.703125 18.40625 68.582031 18.484375 C 68.460938 18.558594 68.339844 18.613281 68.234375 18.660156 C 68.023438 18.75 67.867188 18.785156 67.867188 18.785156 L 67.855469 18.761719 C 67.855469 18.761719 67.957031 18.640625 68.136719 18.496094 Z M 54.789062 14.210938 C 54.800781 14.164062 54.820312 14.117188 54.84375 14.0625 C 54.929688 13.859375 55.066406 13.808594 55.203125 13.757812 C 55.246094 13.742188 55.289062 13.722656 55.335938 13.703125 L 57.679688 10.539062 L 55.421875 13.714844 C 55.429688 13.722656 55.433594 13.730469 55.433594 13.738281 C 55.460938 13.929688 55.363281 14.050781 55.273438 14.15625 C 55.25 14.183594 55.230469 14.210938 55.210938 14.238281 C 55.652344 14.144531 56.355469 13.796875 56.636719 13.285156 C 57.175781 12.308594 57.5 11.378906 57.980469 10.347656 C 58.082031 10.128906 57.910156 10.011719 57.722656 10.167969 C 56.730469 11.007812 55.746094 11.839844 54.863281 12.777344 C 54.433594 13.234375 54.425781 14.003906 54.789062 14.210938 Z M 67.855469 19.113281 L 67.519531 18.554688 L 66.507812 19.164062 L 66.84375 19.722656 Z M 37.101562 16.582031 L 39.304688 15.03125 C 39.304688 15.03125 39.160156 14.515625 38.398438 13.90625 C 38.117188 13.679688 37.742188 13.625 37.410156 13.679688 C 37.679688 13.785156 37.808594 13.945312 37.808594 13.945312 C 37.523438 13.6875 37.078125 13.78125 36.964844 13.816406 C 36.683594 13.929688 36.414062 14.097656 36.183594 14.265625 C 36.546875 14.277344 36.773438 14.617188 36.773438 14.617188 C 36.3125 14.242188 35.769531 14.609375 35.640625 14.707031 C 35.523438 14.816406 35.453125 14.886719 35.453125 14.886719 C 36.238281 14.640625 37.101562 16.582031 37.101562 16.582031 Z M 50.109375 23.292969 L 50.066406 23.261719 L 50.027344 23.292969 L 47.0625 25.578125 L 45.234375 26.988281 L 45.078125 27.109375 L 55.054688 27.109375 L 54.902344 26.988281 Z M 45.46875 26.976562 L 47.144531 25.683594 L 50.066406 23.429688 L 54.667969 26.976562 Z M 55.339844 30.960938 L 57.550781 30.960938 L 57.550781 27.746094 L 55.339844 27.746094 Z M 49.90625 24.246094 L 49.90625 24.496094 C 49.6875 24.550781 49.511719 24.726562 49.453125 24.945312 L 49.207031 24.945312 L 49.207031 25.269531 L 49.453125 25.269531 C 49.511719 25.488281 49.6875 25.660156 49.90625 25.71875 L 49.90625 25.96875 L 50.230469 25.96875 L 50.230469 25.71875 C 50.449219 25.660156 50.621094 25.488281 50.679688 25.269531 L 50.925781 25.269531 L 50.925781 24.945312 L 50.679688 24.945312 C 50.621094 24.726562 50.449219 24.550781 50.230469 24.496094 L 50.230469 24.246094 Z M 50.582031 25.011719 L 50.589844 25.058594 L 50.8125 25.058594 L 50.8125 25.15625 L 50.589844 25.15625 L 50.582031 25.203125 C 50.542969 25.414062 50.375 25.582031 50.164062 25.621094 L 50.117188 25.628906 L 50.117188 25.855469 L 50.019531 25.855469 L 50.019531 25.628906 L 49.972656 25.621094 C 49.761719 25.582031 49.59375 25.414062 49.554688 25.203125 L 49.546875 25.15625 L 49.320312 25.15625 L 49.320312 25.058594 L 49.546875 25.058594 L 49.554688 25.011719 C 49.59375 24.800781 49.761719 24.632812 49.972656 24.59375 L 50.019531 24.585938 L 50.019531 24.359375 L 50.117188 24.359375 L 50.117188 24.585938 L 50.164062 24.59375 C 50.375 24.632812 50.542969 24.800781 50.582031 25.011719 Z M 72.886719 28.332031 C 72.453125 28.507812 72.460938 28.800781 72.289062 28.867188 C 72.289062 28.867188 69.414062 29.9375 68.40625 30.3125 C 68.289062 29.757812 68.140625 29.210938 67.972656 28.667969 L 69.667969 27.203125 L 68.4375 26.246094 L 66.96875 26.144531 C 66.945312 26.101562 66.925781 26.058594 66.902344 26.015625 L 68.480469 26.125 L 69.761719 27.121094 L 78.746094 19.351562 L 78.011719 18.5 L 77.882812 18.429688 L 77.882812 18.59375 L 77.875 18.601562 L 77.730469 18.519531 L 77.730469 18.683594 L 77.71875 18.691406 L 77.574219 18.609375 L 77.578125 18.773438 L 77.566406 18.777344 L 77.421875 18.699219 L 77.421875 18.863281 L 77.414062 18.867188 L 77.269531 18.789062 L 77.269531 18.953125 L 77.257812 18.957031 L 77.117188 18.875 L 77.117188 19.042969 L 77.105469 19.046875 L 76.960938 18.964844 L 76.964844 19.132812 L 76.953125 19.136719 L 76.808594 19.054688 L 76.808594 19.21875 L 76.800781 19.226562 L 76.65625 19.144531 L 76.65625 19.308594 L 76.644531 19.316406 L 76.503906 19.234375 L 76.503906 19.398438 L 76.492188 19.40625 L 76.347656 19.324219 L 76.351562 19.488281 L 76.339844 19.496094 L 76.195312 19.414062 L 76.195312 19.578125 L 76.1875 19.585938 L 76.042969 19.503906 L 76.042969 19.667969 L 76.03125 19.675781 L 75.890625 19.59375 L 75.890625 19.757812 L 75.878906 19.761719 L 75.734375 19.683594 L 75.738281 19.847656 L 75.726562 19.855469 L 75.582031 19.773438 L 75.582031 19.9375 L 75.570312 19.941406 L 75.429688 19.863281 L 75.429688 20.027344 L 75.417969 20.03125 L 75.277344 19.953125 L 75.277344 20.113281 L 75.265625 20.121094 L 75.121094 20.042969 L 75.125 20.203125 L 75.113281 20.210938 L 74.96875 20.128906 L 74.96875 20.292969 L 74.957031 20.300781 L 74.816406 20.21875 L 74.816406 20.382812 L 74.804688 20.390625 L 74.664062 20.308594 L 74.664062 20.472656 L 74.652344 20.480469 L 74.511719 20.398438 L 74.511719 20.5625 L 74.5 20.570312 L 74.355469 20.488281 L 74.359375 20.652344 L 74.34375 20.660156 L 74.203125 20.578125 L 74.203125 20.742188 L 74.191406 20.746094 L 74.050781 20.667969 L 74.050781 20.828125 L 74.039062 20.835938 L 73.898438 20.757812 L 73.898438 20.917969 L 73.882812 20.925781 L 73.742188 20.847656 L 73.746094 21.007812 L 73.730469 21.015625 L 73.589844 20.9375 L 73.589844 21.097656 L 73.578125 21.105469 L 73.4375 21.027344 L 73.4375 21.1875 L 73.421875 21.195312 L 73.285156 21.117188 L 73.285156 21.277344 L 73.269531 21.285156 L 73.128906 21.207031 L 73.132812 21.367188 L 73.117188 21.375 L 72.976562 21.296875 L 72.976562 21.457031 L 72.964844 21.464844 L 72.824219 21.386719 L 72.824219 21.546875 L 72.808594 21.554688 L 72.671875 21.476562 L 72.671875 21.636719 L 72.65625 21.644531 L 72.515625 21.566406 L 72.519531 21.722656 L 72.503906 21.734375 L 72.363281 21.65625 L 72.363281 21.8125 L 72.347656 21.824219 L 72.210938 21.746094 L 72.210938 21.90625 L 72.195312 21.914062 L 72.058594 21.835938 L 72.058594 21.992188 L 72.042969 22.003906 L 71.90625 21.925781 L 71.90625 22.082031 L 71.890625 22.09375 L 71.75 22.015625 L 71.753906 22.171875 L 71.734375 22.183594 L 71.597656 22.105469 L 71.597656 22.261719 L 71.582031 22.273438 L 71.445312 22.195312 L 71.445312 22.351562 L 71.429688 22.363281 L 71.292969 22.28125 L 71.292969 22.441406 L 71.273438 22.453125 L 71.136719 22.371094 L 71.140625 22.53125 L 71.121094 22.539062 L 70.984375 22.460938 L 70.984375 22.621094 L 70.96875 22.628906 L 70.832031 22.554688 L 70.832031 22.710938 L 70.816406 22.71875 L 70.679688 22.644531 L 70.679688 22.800781 L 70.660156 22.808594 L 70.523438 22.730469 L 70.527344 22.886719 L 70.507812 22.898438 L 70.371094 22.820312 L 70.371094 22.976562 L 70.355469 22.988281 L 70.21875 22.910156 L 70.21875 23.066406 L 70.199219 23.078125 L 70.066406 23 L 70.066406 23.15625 L 70.046875 23.167969 L 69.910156 23.089844 L 69.910156 23.246094 L 69.894531 23.257812 L 69.757812 23.179688 L 69.757812 23.335938 L 69.742188 23.347656 L 69.605469 23.269531 L 69.605469 23.425781 L 69.585938 23.4375 L 69.453125 23.359375 L 69.453125 23.515625 L 69.433594 23.527344 L 69.296875 23.449219 L 69.296875 23.605469 L 69.28125 23.617188 L 69.144531 23.539062 L 69.144531 23.695312 L 69.125 23.707031 L 68.992188 23.628906 L 68.992188 23.785156 L 68.972656 23.796875 L 68.835938 23.71875 L 68.839844 23.875 L 68.820312 23.886719 L 68.683594 23.808594 L 68.683594 23.960938 L 68.667969 23.972656 L 68.53125 23.898438 L 68.53125 24.050781 L 68.511719 24.0625 L 68.378906 23.988281 L 68.378906 24.140625 L 68.359375 24.152344 L 68.226562 24.078125 L 68.226562 24.230469 L 68.207031 24.242188 L 68.070312 24.167969 L 68.074219 24.320312 L 68.050781 24.332031 L 67.917969 24.257812 L 67.917969 24.410156 L 67.898438 24.421875 L 67.765625 24.347656 L 67.765625 24.5 L 67.746094 24.511719 L 67.613281 24.4375 L 67.613281 24.589844 L 67.59375 24.601562 L 67.457031 24.523438 L 67.460938 24.679688 L 67.4375 24.691406 L 67.304688 24.617188 L 67.304688 24.769531 L 67.285156 24.78125 L 67.152344 24.703125 L 67.152344 24.859375 L 67.132812 24.871094 L 67 24.792969 L 67 24.945312 L 66.980469 24.960938 L 66.847656 24.882812 L 66.847656 25.035156 L 66.824219 25.050781 L 66.691406 24.972656 L 66.695312 25.125 L 66.671875 25.136719 L 66.539062 25.0625 L 66.539062 25.214844 L 66.519531 25.226562 L 66.480469 25.207031 C 65.722656 23.84375 64.796875 22.582031 63.714844 21.4375 L 66.714844 19.632812 L 66.53125 19.328125 L 63.464844 21.175781 C 63.425781 21.136719 63.386719 21.097656 63.347656 21.058594 C 62.980469 20.6875 62.597656 20.339844 62.203125 20.003906 L 64.507812 17.238281 C 64.507812 17.238281 64.507812 17.234375 64.511719 17.234375 C 64.570312 17.164062 64.695312 17.171875 64.789062 17.25 C 64.792969 17.253906 64.792969 17.253906 64.796875 17.253906 C 64.816406 17.21875 64.820312 17.179688 64.796875 17.164062 L 64.417969 16.847656 C 64.398438 16.828125 64.359375 16.839844 64.328125 16.867188 C 64.328125 16.867188 64.332031 16.871094 64.332031 16.871094 C 64.429688 16.949219 64.460938 17.070312 64.402344 17.140625 C 64.398438 17.144531 64.398438 17.144531 64.394531 17.148438 L 64.328125 17.226562 C 64.34375 17.242188 64.355469 17.25 64.355469 17.253906 C 64.351562 17.253906 64.339844 17.246094 64.324219 17.234375 L 64.304688 17.257812 C 64.320312 17.269531 64.328125 17.28125 64.328125 17.28125 C 64.328125 17.285156 64.3125 17.277344 64.300781 17.265625 L 64.277344 17.289062 C 64.292969 17.300781 64.304688 17.3125 64.300781 17.3125 C 64.300781 17.316406 64.289062 17.308594 64.273438 17.296875 L 64.253906 17.320312 C 64.265625 17.332031 64.277344 17.34375 64.277344 17.34375 C 64.273438 17.347656 64.261719 17.335938 64.246094 17.324219 L 64.226562 17.351562 C 64.242188 17.363281 64.25 17.375 64.25 17.375 C 64.25 17.375 64.238281 17.367188 64.222656 17.355469 L 64.199219 17.382812 C 64.214844 17.394531 64.226562 17.40625 64.222656 17.40625 C 64.222656 17.40625 64.210938 17.398438 64.195312 17.386719 L 64.175781 17.414062 C 64.191406 17.425781 64.199219 17.4375 64.199219 17.4375 C 64.199219 17.4375 64.183594 17.429688 64.171875 17.417969 L 62.09375 19.910156 C 61.332031 19.273438 60.527344 18.703125 59.679688 18.199219 C 59.695312 18.101562 59.648438 17.972656 59.636719 17.878906 C 59.65625 17.832031 59.675781 17.796875 59.703125 17.773438 C 60.183594 17.34375 60.488281 16.851562 60.765625 16.382812 C 60.882812 16.1875 61.082031 16.277344 61.273438 16.484375 C 61.5 16.730469 61.738281 16.886719 62.078125 16.9375 C 62.15625 16.957031 62.167969 16.96875 62.199219 16.894531 C 62.230469 16.910156 62.308594 16.886719 62.332031 16.859375 C 62.558594 16.929688 62.933594 16.441406 62.941406 16.304688 C 62.945312 16.269531 62.914062 16.277344 62.933594 16.253906 C 62.964844 16.222656 62.976562 16.1875 62.96875 16.140625 C 63.023438 16.171875 63.039062 16.066406 63.007812 16.011719 C 62.835938 15.734375 62.613281 15.492188 62.414062 15.234375 C 62.375 15.15625 62.316406 14.980469 62.230469 14.945312 C 62.109375 14.898438 62.003906 14.839844 61.910156 14.773438 C 61.910156 14.773438 61.910156 14.773438 61.914062 14.773438 C 61.925781 14.761719 61.871094 14.691406 61.789062 14.609375 C 61.792969 14.59375 61.796875 14.574219 61.78125 14.558594 L 61.730469 14.511719 C 61.722656 14.503906 61.703125 14.511719 61.691406 14.515625 C 61.597656 14.433594 61.519531 14.382812 61.507812 14.398438 C 61.433594 14.316406 61.359375 14.234375 61.277344 14.148438 C 61.191406 13.90625 61.078125 13.902344 60.890625 13.832031 L 60.894531 13.832031 L 60.683594 13.683594 L 60.46875 13.527344 C 60.375 13.609375 60.285156 13.699219 60.195312 13.785156 L 60.179688 13.769531 C 60.25 13.695312 60.316406 13.617188 60.378906 13.539062 L 59.933594 13.082031 C 59.875 13.019531 59.800781 12.972656 59.722656 12.9375 L 59.367188 12.769531 L 59.292969 12.84375 L 59.25 12.808594 C 59.230469 12.824219 59.207031 12.84375 59.1875 12.863281 L 58.992188 12.730469 L 58.949219 12.777344 L 58.601562 12.429688 L 58.542969 12.402344 L 58.570312 12.460938 L 58.917969 12.808594 L 58.886719 12.839844 L 58.992188 13.0625 C 58.980469 13.074219 58.972656 13.085938 58.964844 13.09375 L 59.003906 13.144531 L 58.9375 13.214844 L 59.085938 13.570312 C 59.121094 13.648438 59.175781 13.726562 59.234375 13.785156 L 59.683594 14.246094 C 59.765625 14.171875 59.84375 14.101562 59.921875 14.027344 L 59.9375 14.046875 C 59.851562 14.132812 59.765625 14.222656 59.679688 14.3125 L 59.851562 14.542969 L 59.976562 14.746094 L 59.988281 14.734375 C 60.046875 14.84375 60.089844 14.910156 60.085938 15.039062 C 60.15625 15.125 60.210938 15.1875 60.238281 15.238281 C 60.25 15.257812 60.253906 15.277344 60.253906 15.296875 L 60.078125 15.082031 C 60.050781 15.046875 60.035156 15.042969 60.015625 15.085938 C 59.929688 15.25 59.8125 15.351562 59.664062 15.402344 C 59.636719 15.414062 59.640625 15.4375 59.65625 15.460938 L 59.804688 15.640625 C 59.761719 15.617188 59.699219 15.585938 59.699219 15.644531 C 59.691406 15.707031 59.855469 15.835938 59.78125 15.921875 C 59.503906 16.230469 59.425781 16.683594 59.136719 16.972656 C 59.039062 17.050781 58.949219 17.078125 58.859375 17.074219 C 58.785156 17.070312 58.730469 17.050781 58.675781 17.007812 L 58.621094 17.0625 C 58.449219 16.929688 58.253906 16.820312 58.058594 16.792969 C 58.007812 16.785156 57.964844 16.835938 57.917969 16.863281 L 57.449219 16.886719 C 57.382812 16.898438 57.316406 16.933594 57.253906 16.988281 C 56.613281 16.722656 55.960938 16.492188 55.296875 16.300781 C 55.320312 16.242188 55.347656 16.183594 55.371094 16.121094 C 55.390625 16.097656 55.382812 16.066406 55.367188 16.035156 L 55.558594 15.605469 C 55.582031 15.570312 55.550781 15.519531 55.5 15.46875 C 55.492188 15.492188 55.488281 15.515625 55.480469 15.535156 C 55.480469 15.539062 55.480469 15.539062 55.476562 15.542969 C 55.457031 15.59375 55.390625 15.628906 55.273438 15.585938 C 55.214844 15.5625 55.164062 15.527344 55.128906 15.484375 C 55.097656 15.445312 55.082031 15.398438 55.09375 15.351562 C 55.097656 15.34375 55.109375 15.304688 55.113281 15.289062 C 55.085938 15.289062 55.066406 15.296875 55.050781 15.3125 C 55.042969 15.316406 55.039062 15.320312 55.035156 15.328125 C 55.035156 15.332031 54.796875 15.777344 54.796875 15.777344 C 54.777344 15.785156 54.761719 15.796875 54.75 15.8125 C 54.75 15.8125 54.75 15.816406 54.75 15.816406 C 54.746094 15.820312 54.746094 15.820312 54.742188 15.824219 C 54.679688 15.921875 54.621094 16.011719 54.558594 16.105469 C 53.488281 15.84375 52.390625 15.679688 51.277344 15.609375 L 51.320312 12.105469 L 51.636719 11.703125 L 49.976562 11.683594 L 50.28125 12.089844 L 50.242188 15.574219 C 50.195312 15.574219 50.152344 15.574219 50.109375 15.574219 C 49.265625 15.574219 48.433594 15.628906 47.613281 15.738281 L 47.589844 15.6875 C 47.589844 15.6875 47.15625 15.289062 46.957031 14.875 C 46.886719 14.730469 46.957031 14.324219 46.957031 14.324219 L 46.78125 13.941406 L 46.472656 14.074219 L 45.28125 11.351562 L 45.316406 11.160156 L 45.042969 10.460938 L 44.796875 10.566406 L 44.789062 10.570312 L 44.777344 10.578125 L 44.535156 10.683594 L 44.859375 11.359375 L 45.027344 11.464844 L 46.21875 14.1875 L 45.910156 14.324219 L 46.070312 14.714844 C 46.070312 14.714844 46.414062 14.933594 46.476562 15.085938 C 46.582031 15.351562 46.621094 15.683594 46.636719 15.894531 C 45.867188 16.039062 45.113281 16.230469 44.367188 16.46875 C 43.820312 15.550781 43.105469 14.347656 43.011719 14.1875 C 42.855469 13.925781 43.269531 13.5 42.90625 12.890625 C 42.738281 12.605469 42.351562 12.300781 42.042969 12.296875 L 42.402344 12.898438 C 42.53125 13.121094 42.488281 13.335938 42.214844 13.5 C 41.941406 13.664062 41.730469 13.597656 41.597656 13.378906 L 41.335938 12.9375 C 41.191406 13.210938 41.175781 13.53125 41.347656 13.816406 C 41.710938 14.425781 42.28125 14.265625 42.4375 14.527344 C 42.53125 14.683594 43.1875 15.789062 43.726562 16.691406 C 43.421875 16.800781 43.121094 16.917969 42.820312 17.046875 C 41.976562 17.402344 41.167969 17.816406 40.390625 18.289062 C 40.105469 17.890625 39.855469 17.527344 39.792969 17.425781 C 39.371094 16.742188 39.78125 16.222656 40.042969 15.988281 L 40.035156 15.976562 L 37.839844 17.527344 L 37.847656 17.535156 C 38.160156 17.367188 38.789062 17.15625 39.289062 17.78125 C 39.320312 17.820312 39.527344 18.230469 39.757812 18.691406 C 39.171875 19.082031 38.609375 19.503906 38.070312 19.957031 L 36.925781 18.375 C 36.65625 18 36.128906 17.917969 35.753906 18.1875 L 34.84375 18.847656 L 34.722656 18.679688 L 34.4375 18.882812 L 34.441406 19.058594 L 34.445312 19.0625 L 34.4375 19.066406 L 34.472656 19.113281 L 33.878906 19.542969 C 33.800781 19.507812 33.714844 19.484375 33.625 19.480469 L 33.40625 19.179688 L 32.679688 19.707031 L 32.898438 20.007812 C 32.871094 20.09375 32.863281 20.179688 32.875 20.265625 L 32.535156 20.511719 C 32.160156 20.785156 32.074219 21.308594 32.34375 21.683594 L 32.5625 21.984375 L 32.542969 21.996094 C 32.5 22.027344 32.492188 22.085938 32.519531 22.128906 C 32.550781 22.171875 32.609375 22.179688 32.652344 22.148438 L 33.132812 21.804688 C 33.175781 21.773438 33.183594 21.714844 33.152344 21.671875 C 33.125 21.628906 33.066406 21.621094 33.023438 21.648438 L 32.808594 21.351562 C 32.722656 21.230469 32.746094 21.0625 32.867188 20.976562 L 33.210938 20.726562 C 33.421875 20.824219 33.695312 20.800781 33.910156 20.644531 C 34.128906 20.488281 34.234375 20.238281 34.210938 20.007812 L 34.808594 19.574219 L 34.84375 19.628906 L 35.023438 19.695312 L 35.019531 19.683594 L 35.300781 19.480469 L 35.175781 19.308594 L 36.089844 18.648438 C 36.210938 18.5625 36.378906 18.589844 36.464844 18.710938 L 37.636719 20.332031 C 37.375 20.566406 37.121094 20.808594 36.871094 21.058594 C 35.605469 22.320312 34.542969 23.738281 33.691406 25.289062 L 28.363281 21.578125 L 27.5625 22.667969 L 27.648438 22.730469 L 32.945312 26.800781 C 32.914062 26.871094 32.882812 26.9375 32.855469 27.007812 C 32.523438 27.789062 32.246094 28.59375 32.027344 29.410156 L 32.011719 29.398438 C 31.960938 29.371094 31.914062 29.339844 31.859375 29.355469 C 31.832031 29.363281 31.808594 29.375 31.785156 29.390625 L 31.15625 29.023438 C 30.9375 28.894531 30.691406 28.847656 30.457031 28.875 L 30.5625 28.40625 L 31.527344 28.621094 C 31.617188 28.640625 31.707031 28.582031 31.726562 28.492188 C 31.75 28.398438 31.691406 28.308594 31.597656 28.289062 L 30.46875 28.039062 C 30.375 28.019531 30.285156 28.078125 30.265625 28.167969 L 30.078125 29.007812 L 29.972656 29.050781 C 29.929688 29.078125 29.890625 29.105469 29.855469 29.136719 L 29.726562 29.179688 L 29.664062 28.886719 L 29.378906 28.972656 L 29.316406 28.679688 L 29.03125 28.769531 L 28.972656 28.492188 L 28.96875 28.476562 L 28.683594 28.566406 L 28.621094 28.273438 L 28.335938 28.359375 L 28.277344 28.066406 L 27.988281 28.15625 L 27.929688 27.863281 L 27.640625 27.953125 L 27.582031 27.660156 L 27.296875 27.746094 L 27.234375 27.453125 L 26.949219 27.542969 L 26.886719 27.25 L 26.601562 27.339844 L 26.539062 27.046875 L 26.253906 27.132812 L 26.191406 26.839844 L 25.90625 26.929688 L 25.847656 26.636719 L 25.507812 26.742188 C 25.109375 26.515625 24.605469 26.640625 24.378906 27.027344 C 24.152344 27.414062 24.289062 27.921875 24.691406 28.15625 L 24.757812 28.472656 L 25.042969 28.382812 L 25.105469 28.675781 L 25.390625 28.589844 L 25.453125 28.882812 L 25.742188 28.792969 L 25.804688 29.085938 L 26.089844 29 L 26.152344 29.292969 L 26.4375 29.203125 L 26.5 29.5 L 26.789062 29.410156 L 26.851562 29.703125 L 27.136719 29.617188 L 27.199219 29.910156 L 27.484375 29.820312 L 27.546875 30.113281 L 27.832031 30.027344 L 27.890625 30.316406 L 27.894531 30.316406 L 27.898438 30.320312 L 27.902344 30.3125 L 28.179688 30.230469 L 28.242188 30.523438 L 28.527344 30.433594 L 28.589844 30.726562 L 28.875 30.640625 L 28.882812 30.671875 C 28.828125 30.769531 28.863281 30.890625 28.957031 30.949219 L 31.199219 32.269531 C 31.246094 32.296875 31.300781 32.300781 31.355469 32.289062 C 31.402344 32.277344 31.449219 32.242188 31.476562 32.195312 L 31.484375 32.183594 L 31.5 32.195312 C 31.4375 32.773438 31.398438 33.359375 31.386719 33.945312 C 29.601562 34.109375 28.0625 34.292969 26.839844 34.496094 L 73.300781 34.496094 C 72.09375 34.296875 70.582031 34.113281 68.828125 33.953125 C 68.8125 32.980469 68.71875 32.019531 68.554688 31.078125 C 69.429688 30.75 72.554688 29.585938 72.554688 29.585938 C 72.730469 29.523438 72.914062 29.75 73.359375 29.601562 C 73.710938 29.484375 73.886719 29.082031 73.757812 28.730469 C 73.625 28.378906 73.230469 28.191406 72.886719 28.332031 Z M 42.695312 14.308594 C 42.539062 14.402344 42.375 14.425781 42.296875 14.371094 C 42.386719 14.402344 42.535156 14.371094 42.679688 14.285156 C 42.828125 14.199219 42.925781 14.082031 42.941406 13.988281 C 42.949219 14.082031 42.851562 14.214844 42.695312 14.308594 Z M 29.175781 29.847656 C 29.066406 30.039062 28.8125 30.101562 28.617188 29.984375 L 25.472656 28.132812 L 24.902344 27.796875 C 24.707031 27.683594 24.636719 27.433594 24.75 27.242188 C 24.863281 27.054688 25.113281 26.992188 25.308594 27.105469 L 28.453125 28.957031 L 28.453125 28.960938 L 29.023438 29.296875 C 29.21875 29.410156 29.289062 29.660156 29.175781 29.847656 Z M 31.128906 31.394531 C 31.117188 31.417969 31.089844 31.421875 31.070312 31.410156 L 30.105469 30.84375 C 30.082031 30.832031 30.078125 30.804688 30.089844 30.78125 C 30.101562 30.761719 30.128906 30.753906 30.148438 30.765625 L 31.113281 31.335938 C 31.136719 31.347656 31.140625 31.375 31.128906 31.394531 Z M 31.296875 31.113281 C 31.285156 31.136719 31.257812 31.140625 31.234375 31.128906 L 30.269531 30.5625 C 30.25 30.550781 30.242188 30.523438 30.253906 30.5 C 30.265625 30.480469 30.292969 30.472656 30.316406 30.484375 L 31.28125 31.054688 C 31.300781 31.066406 31.308594 31.09375 31.296875 31.113281 Z M 31.460938 30.832031 C 31.449219 30.855469 31.421875 30.859375 31.402344 30.847656 L 30.4375 30.28125 C 30.414062 30.269531 30.40625 30.242188 30.417969 30.21875 C 30.433594 30.199219 30.460938 30.191406 30.480469 30.203125 L 31.445312 30.773438 C 31.46875 30.785156 31.472656 30.8125 31.460938 30.832031 Z M 38.058594 31.914062 L 37.539062 31.914062 L 37.539062 30.5625 L 38.058594 30.5625 Z M 38.058594 30.414062 L 37.539062 30.414062 L 37.539062 29.0625 L 38.058594 29.0625 Z M 38.726562 31.914062 L 38.207031 31.914062 L 38.207031 30.5625 L 38.726562 30.5625 Z M 38.726562 30.414062 L 38.207031 30.414062 L 38.207031 29.0625 L 38.726562 29.0625 Z M 40.632812 31.914062 L 40.113281 31.914062 L 40.113281 30.5625 L 40.632812 30.5625 Z M 40.632812 30.414062 L 40.113281 30.414062 L 40.113281 29.0625 L 40.632812 29.0625 Z M 41.300781 31.914062 L 40.78125 31.914062 L 40.78125 30.5625 L 41.300781 30.5625 Z M 41.300781 30.414062 L 40.78125 30.414062 L 40.78125 29.0625 L 41.300781 29.0625 Z M 46.105469 32.019531 L 45.585938 32.019531 L 45.585938 30.664062 L 46.105469 30.664062 Z M 46.105469 30.519531 L 45.585938 30.519531 L 45.585938 29.164062 L 46.105469 29.164062 Z M 46.777344 32.019531 L 46.257812 32.019531 L 46.257812 30.664062 L 46.777344 30.664062 Z M 46.777344 30.519531 L 46.257812 30.519531 L 46.257812 29.164062 L 46.777344 29.164062 Z M 51.4375 32.507812 L 48.703125 32.507812 L 48.703125 29.644531 L 51.4375 29.644531 Z M 48.710938 29.453125 C 48.769531 28.902344 49.355469 28.46875 50.070312 28.46875 C 50.785156 28.46875 51.371094 28.902344 51.429688 29.453125 Z M 53.882812 32.019531 L 53.363281 32.019531 L 53.363281 30.664062 L 53.882812 30.664062 Z M 53.882812 30.519531 L 53.363281 30.519531 L 53.363281 29.164062 L 53.882812 29.164062 Z M 54.554688 32.019531 L 54.035156 32.019531 L 54.035156 30.664062 L 54.554688 30.664062 Z M 54.554688 30.519531 L 54.035156 30.519531 L 54.035156 29.164062 L 54.554688 29.164062 Z M 58.789062 27.746094 L 58.023438 27.746094 L 58.023438 32.757812 L 57.550781 32.757812 L 57.550781 31.097656 L 57.40625 31.097656 L 57.40625 32.761719 L 57.265625 32.761719 L 57.265625 31.097656 L 57.050781 31.097656 L 57.050781 32.761719 L 56.910156 32.761719 L 56.910156 31.097656 L 56.695312 31.097656 L 56.695312 32.761719 L 56.554688 32.761719 L 56.554688 31.097656 L 56.339844 31.097656 L 56.339844 32.761719 L 56.203125 32.761719 L 56.203125 31.097656 L 55.984375 31.097656 L 55.984375 32.761719 L 55.847656 32.761719 L 55.847656 31.097656 L 55.632812 31.097656 L 55.632812 32.761719 L 55.492188 32.761719 L 55.492188 31.097656 L 55.339844 31.097656 L 55.339844 32.757812 L 54.867188 32.757812 L 54.867188 27.746094 L 53.011719 27.746094 L 53.011719 32.757812 L 52.539062 32.757812 L 52.539062 27.746094 L 47.605469 27.746094 L 47.605469 32.757812 L 47.132812 32.757812 L 47.132812 27.746094 L 45.273438 27.746094 L 45.273438 32.757812 L 44.800781 32.757812 L 44.800781 31.097656 L 44.648438 31.097656 L 44.648438 32.761719 L 44.511719 32.761719 L 44.511719 31.097656 L 44.292969 31.097656 L 44.292969 32.761719 L 44.15625 32.761719 L 44.15625 31.097656 L 43.9375 31.097656 L 43.9375 32.761719 L 43.800781 32.761719 L 43.800781 31.097656 L 43.585938 31.097656 L 43.585938 32.761719 L 43.445312 32.761719 L 43.445312 31.097656 L 43.230469 31.097656 L 43.230469 32.761719 L 43.089844 32.761719 L 43.089844 31.097656 L 42.875 31.097656 L 42.875 32.761719 L 42.734375 32.761719 L 42.734375 31.097656 L 42.589844 31.097656 L 42.589844 32.757812 L 42.117188 32.757812 L 42.117188 27.746094 L 41.34375 27.746094 L 41.34375 27.042969 L 44.269531 27.042969 L 46.761719 25.121094 L 50.066406 22.570312 L 53.375 25.121094 L 55.867188 27.042969 L 58.789062 27.042969 Z M 59.359375 31.914062 L 58.839844 31.914062 L 58.839844 30.5625 L 59.359375 30.5625 Z M 59.359375 30.414062 L 58.839844 30.414062 L 58.839844 29.0625 L 59.359375 29.0625 Z M 60.027344 31.914062 L 59.507812 31.914062 L 59.507812 30.5625 L 60.027344 30.5625 Z M 60.027344 30.414062 L 59.507812 30.414062 L 59.507812 29.0625 L 60.027344 29.0625 Z M 61.933594 31.914062 L 61.414062 31.914062 L 61.414062 30.5625 L 61.933594 30.5625 Z M 61.933594 30.414062 L 61.414062 30.414062 L 61.414062 29.0625 L 61.933594 29.0625 Z M 62.601562 31.914062 L 62.082031 31.914062 L 62.082031 30.5625 L 62.601562 30.5625 Z M 62.601562 30.414062 L 62.082031 30.414062 L 62.082031 29.0625 L 62.601562 29.0625 Z M 64.425781 33.628906 L 64.425781 28.652344 L 65.59375 28.652344 C 65.296875 27.902344 63.011719 23.546875 62.847656 22.304688 L 57.96875 22.304688 C 58.015625 23.074219 58.113281 23.894531 58.265625 24.738281 C 58.339844 25.152344 58.425781 25.558594 58.519531 25.953125 C 58.386719 25.617188 58.261719 25.273438 58.148438 24.921875 C 57.847656 24.019531 57.621094 23.140625 57.464844 22.304688 C 57.359375 21.753906 57.273438 21.214844 57.207031 20.695312 L 55.910156 20.695312 L 55.910156 19.882812 L 55.96875 19.882812 L 55.96875 19.53125 L 54.671875 19.53125 L 54.671875 19.882812 L 54.730469 19.882812 L 54.730469 20.695312 L 42.925781 20.695312 C 42.863281 21.214844 42.777344 21.753906 42.671875 22.304688 L 42.667969 22.304688 C 42.511719 23.140625 42.285156 24.019531 41.988281 24.921875 C 41.871094 25.273438 41.746094 25.617188 41.617188 25.953125 C 41.710938 25.558594 41.796875 25.152344 41.871094 24.738281 C 42.023438 23.894531 42.121094 23.074219 42.167969 22.304688 L 37.285156 22.304688 C 37.121094 23.546875 34.839844 27.902344 34.539062 28.652344 L 35.707031 28.652344 L 35.707031 33.628906 C 34.351562 33.707031 33.078125 33.796875 31.90625 33.898438 C 32.007812 29.183594 33.890625 24.765625 37.234375 21.421875 C 40.671875 17.984375 45.246094 16.089844 50.105469 16.089844 C 54.96875 16.089844 59.539062 17.984375 62.976562 21.421875 C 66.324219 24.769531 68.207031 29.1875 68.304688 33.90625 C 67.113281 33.804688 65.8125 33.710938 64.425781 33.628906 Z M 72.394531 29.238281 C 72.328125 29.058594 72.339844 28.878906 72.417969 28.808594 C 72.359375 28.898438 72.359375 29.0625 72.421875 29.226562 C 72.484375 29.394531 72.59375 29.519531 72.695312 29.550781 C 72.585938 29.546875 72.460938 29.421875 72.394531 29.238281 Z M 73.539062 29.15625 L 73.515625 29.292969 L 73.386719 29.339844 L 73.300781 29.445312 L 73.164062 29.421875 L 73.035156 29.472656 L 72.929688 29.382812 L 72.796875 29.359375 L 72.746094 29.234375 L 72.640625 29.144531 L 72.664062 29.011719 L 72.617188 28.882812 L 72.703125 28.777344 L 72.726562 28.640625 L 72.855469 28.59375 L 72.945312 28.488281 L 73.078125 28.511719 L 73.207031 28.460938 L 73.3125 28.550781 L 73.449219 28.574219 L 73.496094 28.699219 L 73.601562 28.789062 L 73.578125 28.921875 L 73.625 29.050781 Z M 28.890625 29.535156 L 25.183594 27.351562 C 25.117188 27.3125 25.03125 27.332031 24.996094 27.398438 C 24.957031 27.464844 24.976562 27.546875 25.042969 27.585938 L 28.75 29.769531 C 28.816406 29.808594 28.902344 29.785156 28.941406 29.722656 C 28.976562 29.65625 28.957031 29.574219 28.890625 29.535156 Z M 42.589844 30.960938 L 44.800781 30.960938 L 44.800781 27.746094 L 42.589844 27.746094 Z M 32.082031 19.308594 C 32.109375 19.289062 32.132812 19.265625 32.15625 19.242188 L 32.417969 18.992188 C 32.441406 18.992188 32.464844 18.988281 32.488281 18.984375 L 32.683594 19.253906 L 32.574219 19.332031 C 32.550781 19.347656 32.546875 19.378906 32.5625 19.402344 C 32.578125 19.421875 32.609375 19.429688 32.632812 19.414062 L 33.128906 19.054688 C 33.152344 19.035156 33.15625 19.007812 33.140625 18.984375 C 33.125 18.960938 33.09375 18.957031 33.070312 18.972656 L 32.960938 19.050781 L 32.765625 18.78125 C 32.78125 18.761719 32.792969 18.738281 32.800781 18.71875 L 33.117188 18.546875 C 33.148438 18.535156 33.175781 18.519531 33.203125 18.5 C 33.351562 18.390625 33.394531 18.203125 33.304688 18.074219 C 33.210938 17.945312 33.015625 17.925781 32.867188 18.035156 C 32.863281 18.039062 32.855469 18.042969 32.851562 18.046875 L 32.847656 18.046875 L 32.84375 18.050781 C 32.816406 18.074219 32.792969 18.101562 32.777344 18.128906 L 32.566406 18.363281 C 32.484375 18.359375 32.394531 18.386719 32.3125 18.445312 C 32.234375 18.503906 32.179688 18.582031 32.15625 18.660156 L 31.867188 18.785156 C 31.835938 18.792969 31.800781 18.808594 31.769531 18.828125 L 31.765625 18.828125 L 31.765625 18.832031 C 31.761719 18.835938 31.753906 18.839844 31.746094 18.84375 C 31.601562 18.949219 31.554688 19.140625 31.648438 19.269531 C 31.742188 19.398438 31.933594 19.414062 32.082031 19.308594 Z M 25.988281 23.648438 C 25.988281 23.648438 25.996094 23.335938 26.285156 22.898438 C 26.539062 22.515625 27.144531 22.355469 27.464844 22.59375 C 27.472656 22.601562 27.480469 22.605469 27.488281 22.613281 L 28.289062 21.523438 C 28.136719 21.394531 27.699219 20.972656 28.019531 20.535156 C 28.539062 19.828125 29.800781 20.335938 29.800781 20.335938 L 29.832031 20.074219 C 29.832031 20.074219 27.246094 19.066406 26.507812 19.972656 C 25.875 20.753906 25.578125 21.238281 25.578125 21.238281 L 25.453125 21.410156 C 25.53125 21.652344 25.488281 21.941406 25.3125 22.183594 C 25.132812 22.425781 24.867188 22.554688 24.613281 22.550781 L 24.1875 23.132812 L 25.605469 24.171875 Z M 33.257812 19.007812 L 32.535156 19.53125 C 32.496094 19.558594 32.488281 19.613281 32.515625 19.652344 C 32.546875 19.691406 32.597656 19.699219 32.636719 19.671875 L 33.359375 19.148438 C 33.398438 19.121094 33.40625 19.066406 33.378906 19.027344 C 33.351562 18.988281 33.296875 18.980469 33.257812 19.007812 Z M 33.257812 19.007812 " fill-opacity="1" fill-rule="evenodd"/></g><g fill="#000000" fill-opacity="1"><g transform="translate(12.016426, 49.100214)"><g><path d="M 7.0625 0 L 7.0625 -3.4375 L 3.875 -3.4375 L 3.875 0 L 0.96875 0 L 0.96875 -9.046875 L 3.875 -9.046875 L 3.875 -5.75 L 7.0625 -5.75 L 7.0625 -9.046875 L 9.96875 -9.046875 L 9.96875 0 Z M 7.0625 0 "/></g></g></g><g fill="#000000" fill-opacity="1"><g transform="translate(22.160909, 49.100214)"><g><path d="M 4.21875 -7.09375 C 5.28125 -7.09375 6.144531 -6.914062 6.8125 -6.5625 C 7.476562 -6.207031 7.8125 -5.628906 7.8125 -4.828125 L 7.8125 -2.125 C 7.8125 -1.976562 7.84375 -1.851562 7.90625 -1.75 C 7.976562 -1.65625 8.082031 -1.609375 8.21875 -1.609375 L 8.703125 -1.609375 L 8.703125 -0.109375 C 8.671875 -0.0859375 8.597656 -0.0546875 8.484375 -0.015625 C 8.378906 0.0234375 8.226562 0.0625 8.03125 0.09375 C 7.832031 0.132812 7.597656 0.15625 7.328125 0.15625 C 6.828125 0.15625 6.410156 0.0820312 6.078125 -0.0625 C 5.742188 -0.21875 5.519531 -0.429688 5.40625 -0.703125 C 5.070312 -0.441406 4.695312 -0.234375 4.28125 -0.078125 C 3.875 0.078125 3.394531 0.15625 2.84375 0.15625 C 1.207031 0.15625 0.390625 -0.488281 0.390625 -1.78125 C 0.390625 -2.457031 0.570312 -2.972656 0.9375 -3.328125 C 1.300781 -3.679688 1.820312 -3.921875 2.5 -4.046875 C 3.1875 -4.179688 4.082031 -4.25 5.1875 -4.25 L 5.1875 -4.59375 C 5.1875 -4.863281 5.09375 -5.066406 4.90625 -5.203125 C 4.71875 -5.347656 4.472656 -5.421875 4.171875 -5.421875 C 3.898438 -5.421875 3.664062 -5.375 3.46875 -5.28125 C 3.28125 -5.1875 3.1875 -5.035156 3.1875 -4.828125 L 3.1875 -4.765625 L 0.609375 -4.765625 C 0.597656 -4.804688 0.59375 -4.867188 0.59375 -4.953125 C 0.59375 -5.609375 0.90625 -6.128906 1.53125 -6.515625 C 2.15625 -6.898438 3.050781 -7.09375 4.21875 -7.09375 Z M 5.1875 -3.015625 C 4.445312 -3.015625 3.898438 -2.929688 3.546875 -2.765625 C 3.191406 -2.609375 3.015625 -2.394531 3.015625 -2.125 C 3.015625 -1.6875 3.3125 -1.46875 3.90625 -1.46875 C 4.25 -1.46875 4.546875 -1.5625 4.796875 -1.75 C 5.054688 -1.9375 5.1875 -2.164062 5.1875 -2.4375 Z M 5.1875 -3.015625 "/></g></g></g><g fill="#000000" fill-opacity="1"><g transform="translate(30.123929, 49.100214)"><g><path d="M 5.578125 -7.09375 C 6.378906 -7.09375 6.976562 -6.867188 7.375 -6.421875 C 7.78125 -5.972656 7.984375 -5.332031 7.984375 -4.5 L 7.984375 0 L 5.375 0 L 5.375 -4.171875 C 5.375 -4.472656 5.296875 -4.710938 5.140625 -4.890625 C 4.992188 -5.078125 4.78125 -5.171875 4.5 -5.171875 C 4.175781 -5.171875 3.910156 -5.0625 3.703125 -4.84375 C 3.503906 -4.632812 3.40625 -4.378906 3.40625 -4.078125 L 3.40625 0 L 0.78125 0 L 0.78125 -6.9375 L 2.9375 -6.9375 L 3.09375 -5.890625 C 3.375 -6.253906 3.734375 -6.546875 4.171875 -6.765625 C 4.609375 -6.984375 5.078125 -7.09375 5.578125 -7.09375 Z M 5.578125 -7.09375 "/></g></g></g><g fill="#000000" fill-opacity="1"><g transform="translate(38.08695, 49.100214)"><g><path d="M 5.828125 0 L 5.609375 -0.984375 C 5.097656 -0.222656 4.363281 0.15625 3.40625 0.15625 C 2.46875 0.15625 1.742188 -0.148438 1.234375 -0.765625 C 0.722656 -1.378906 0.46875 -2.285156 0.46875 -3.484375 C 0.46875 -4.671875 0.722656 -5.566406 1.234375 -6.171875 C 1.742188 -6.785156 2.46875 -7.09375 3.40625 -7.09375 C 4.195312 -7.09375 4.84375 -6.828125 5.34375 -6.296875 L 5.34375 -9.53125 L 7.96875 -9.53125 L 7.96875 0 Z M 4.21875 -5.171875 C 3.46875 -5.171875 3.09375 -4.71875 3.09375 -3.8125 L 3.09375 -3.109375 C 3.09375 -2.222656 3.46875 -1.78125 4.21875 -1.78125 C 4.601562 -1.78125 4.890625 -1.914062 5.078125 -2.1875 C 5.273438 -2.457031 5.375 -2.8125 5.375 -3.25 L 5.375 -3.671875 C 5.375 -4.117188 5.273438 -4.476562 5.078125 -4.75 C 4.890625 -5.03125 4.601562 -5.171875 4.21875 -5.171875 Z M 4.21875 -5.171875 "/></g></g></g><g fill="#000000" fill-opacity="1"><g transform="translate(46.049968, 49.100214)"><g><path d="M 5.5625 -0.203125 C 5.195312 0.765625 4.753906 1.5 4.234375 2 C 3.710938 2.507812 2.984375 2.765625 2.046875 2.765625 C 1.484375 2.765625 0.976562 2.679688 0.53125 2.515625 L 0.53125 0.953125 L 1.59375 0.953125 C 2.25 0.953125 2.640625 0.632812 2.765625 0 L 0 -6.9375 L 2.8125 -6.9375 L 4.140625 -2.328125 L 4.234375 -2.328125 L 5.453125 -6.9375 L 8.03125 -6.9375 Z M 5.5625 -0.203125 "/></g></g></g><g fill="#000000" fill-opacity="1"><g transform="translate(53.277066, 49.100214)"><g/></g></g><g fill="#000000" fill-opacity="1"><g transform="translate(56.850871, 49.100214)"><g><path d="M 6.171875 -6.734375 L 6.171875 0 L 3.265625 0 L 3.265625 -6.734375 L 0.296875 -6.734375 L 0.296875 -9.046875 L 9.125 -9.046875 L 9.125 -6.734375 Z M 6.171875 -6.734375 "/></g></g></g><g fill="#000000" fill-opacity="1"><g transform="translate(65.536667, 49.100214)"><g><path d="M 0.875 -7.75 L 0.875 -9.53125 L 3.5 -9.53125 L 3.5 -7.75 Z M 0.875 0 L 0.875 -6.9375 L 3.5 -6.9375 L 3.5 0 Z M 0.875 0 "/></g></g></g><g fill="#000000" fill-opacity="1"><g transform="translate(69.110472, 49.100214)"><g><path d="M 5.40625 -6.9375 L 5.40625 -5.171875 L 3.9375 -5.171875 L 3.9375 -2.515625 C 3.9375 -2.203125 3.988281 -1.972656 4.09375 -1.828125 C 4.195312 -1.679688 4.390625 -1.609375 4.671875 -1.609375 L 5.40625 -1.609375 L 5.40625 -0.078125 C 5.195312 -0.00390625 4.925781 0.0507812 4.59375 0.09375 C 4.257812 0.132812 3.972656 0.15625 3.734375 0.15625 C 2.960938 0.15625 2.367188 0.015625 1.953125 -0.265625 C 1.535156 -0.546875 1.328125 -1.019531 1.328125 -1.6875 L 1.328125 -5.171875 L 0.359375 -5.171875 L 0.359375 -6.9375 L 1.4375 -6.9375 L 2 -9.046875 L 3.9375 -9.046875 L 3.9375 -6.9375 Z M 5.40625 -6.9375 "/></g></g></g><g fill="#000000" fill-opacity="1"><g transform="translate(74.142963, 49.100214)"><g><path d="M 4.21875 -7.09375 C 5.28125 -7.09375 6.144531 -6.914062 6.8125 -6.5625 C 7.476562 -6.207031 7.8125 -5.628906 7.8125 -4.828125 L 7.8125 -2.125 C 7.8125 -1.976562 7.84375 -1.851562 7.90625 -1.75 C 7.976562 -1.65625 8.082031 -1.609375 8.21875 -1.609375 L 8.703125 -1.609375 L 8.703125 -0.109375 C 8.671875 -0.0859375 8.597656 -0.0546875 8.484375 -0.015625 C 8.378906 0.0234375 8.226562 0.0625 8.03125 0.09375 C 7.832031 0.132812 7.597656 0.15625 7.328125 0.15625 C 6.828125 0.15625 6.410156 0.0820312 6.078125 -0.0625 C 5.742188 -0.21875 5.519531 -0.429688 5.40625 -0.703125 C 5.070312 -0.441406 4.695312 -0.234375 4.28125 -0.078125 C 3.875 0.078125 3.394531 0.15625 2.84375 0.15625 C 1.207031 0.15625 0.390625 -0.488281 0.390625 -1.78125 C 0.390625 -2.457031 0.570312 -2.972656 0.9375 -3.328125 C 1.300781 -3.679688 1.820312 -3.921875 2.5 -4.046875 C 3.1875 -4.179688 4.082031 -4.25 5.1875 -4.25 L 5.1875 -4.59375 C 5.1875 -4.863281 5.09375 -5.066406 4.90625 -5.203125 C 4.71875 -5.347656 4.472656 -5.421875 4.171875 -5.421875 C 3.898438 -5.421875 3.664062 -5.375 3.46875 -5.28125 C 3.28125 -5.1875 3.1875 -5.035156 3.1875 -4.828125 L 3.1875 -4.765625 L 0.609375 -4.765625 C 0.597656 -4.804688 0.59375 -4.867188 0.59375 -4.953125 C 0.59375 -5.609375 0.90625 -6.128906 1.53125 -6.515625 C 2.15625 -6.898438 3.050781 -7.09375 4.21875 -7.09375 Z M 5.1875 -3.015625 C 4.445312 -3.015625 3.898438 -2.929688 3.546875 -2.765625 C 3.191406 -2.609375 3.015625 -2.394531 3.015625 -2.125 C 3.015625 -1.6875 3.3125 -1.46875 3.90625 -1.46875 C 4.25 -1.46875 4.546875 -1.5625 4.796875 -1.75 C 5.054688 -1.9375 5.1875 -2.164062 5.1875 -2.4375 Z M 5.1875 -3.015625 "/></g></g></g><g fill="#000000" fill-opacity="1"><g transform="translate(82.105981, 49.100214)"><g><path d="M 5.578125 -7.09375 C 6.378906 -7.09375 6.976562 -6.867188 7.375 -6.421875 C 7.78125 -5.972656 7.984375 -5.332031 7.984375 -4.5 L 7.984375 0 L 5.375 0 L 5.375 -4.171875 C 5.375 -4.472656 5.296875 -4.710938 5.140625 -4.890625 C 4.992188 -5.078125 4.78125 -5.171875 4.5 -5.171875 C 4.175781 -5.171875 3.910156 -5.0625 3.703125 -4.84375 C 3.503906 -4.632812 3.40625 -4.378906 3.40625 -4.078125 L 3.40625 0 L 0.78125 0 L 0.78125 -6.9375 L 2.9375 -6.9375 L 3.09375 -5.890625 C 3.375 -6.253906 3.734375 -6.546875 4.171875 -6.765625 C 4.609375 -6.984375 5.078125 -7.09375 5.578125 -7.09375 Z M 5.578125 -7.09375 "/></g></g></g></svg>